<?xml version="1.0" encoding="utf-8"?>
<!-- Generator: Adobe Illustrator 24.2.1, SVG Export Plug-In . SVG Version: 6.00 Build 0)  -->
<svg version="1.1" id="Layer_1" xmlns="http://www.w3.org/2000/svg" xmlns:xlink="http://www.w3.org/1999/xlink" x="0px" y="0px"
	 viewBox="0 0 1537 500" style="enable-background:new 0 0 1537 500;" xml:space="preserve">
<style type="text/css">
	.st0{fill:#28324F;}
	.st1{fill:#FFFFFF;}
	.st2{fill:#E84949;}
	.st3{fill:#F5CF41;}
	.st4{fill:#30D898;}
</style>
<rect class="st0" width="1537" height="500"/>
<g>
	<path class="st1" d="M583.3,188h-50.2v-16.4H651V188h-49.9v150h-17.8V188z"/>
	<path class="st1" d="M641.9,282c0-34.2,24.9-60.2,59.1-60.2c32.8,0,58.4,22.6,58.4,57.5v7.5H659c2.3,22.6,20.1,37.9,42.9,37.9
		c18.5,0,31.5-9.6,38.5-23.5l15.3,7.5c-10.5,19.8-28.3,31.7-53.8,31.7C665.7,340.3,641.9,315.5,641.9,282z M659.9,270.6h81.4
		c-3.2-20.5-18.2-33.1-40.4-33.1C680.5,237.5,664.5,251.4,659.9,270.6z"/>
	<path class="st1" d="M775.1,319.8l13.9-12.3c9.4,10.9,20.3,17.3,36.3,17.3c18,0,27.4-8.7,27.4-19.2c0-12.5-16.4-15.1-32.1-18.7
		c-18.2-4.3-38.8-10-38.8-32.4c0-17.1,16-33.1,42.2-33.1c18.5,0,33.7,5.7,44.5,17.6L854.9,250c-7.8-9.1-16.9-13.5-31-13.5
		c-16.4,0-24.9,8-24.9,17.8c0,11.6,13.2,13.5,30.8,17.8c18.9,4.3,40.1,10.3,40.1,33.5c0,17.3-15,34.7-45.6,34.7
		C802.9,340.3,786.7,333.3,775.1,319.8z"/>
	<path class="st1" d="M885.7,224h19.6v-37h17.8v37H950v16h-26.9v54.3c0,23.3,4.3,27.1,26.9,27.1V338h-2.5
		c-33.3,0-42.2-9.6-42.2-43.6V240h-19.6V224z"/>
	<path class="st1" d="M975.4,309.8l15-11.4c11.2,17.3,24.9,25.8,43.8,25.8c20.8,0,35.3-13.2,35.3-31.5c0-20.5-19.8-26.9-40.6-34
		c-22.8-7.8-46.5-17.3-46.5-46.3c0-24.2,21.9-43.1,51.1-43.1c23.5,0,39.4,9.3,51.5,25.1l-14.1,10.5c-8.4-13.2-20.8-19.8-37.6-19.8
		c-18.7,0-32.8,11.9-32.8,27.4c0,19.2,19.2,25.3,39.7,32.4c23,8,47.4,17.6,47.4,47.9c0,24.6-21.2,47.7-53.4,47.7
		C1007.4,340.3,988.9,328.9,975.4,309.8z"/>
	<path class="st1" d="M1114.1,171.6h17.8V338h-17.8V171.6z"/>
	<path class="st1" d="M1172.6,172.5c8.2,0,14.1,5.9,14.1,13.9s-5.9,14.1-14.1,14.1c-8.2,0-13.9-6.2-13.9-14.1
		S1164.9,172.5,1172.6,172.5z M1181.5,224v114h-17.8V224H1181.5z"/>
	<path class="st1" d="M1207.8,281c0-32.6,24.4-59.3,58.4-59.3c14.6,0,31.9,7.3,41.7,20.8v-70.9h17.1V338h-16.9v-18.7
		c-9.8,13.7-27.4,21-42,21C1232.6,340.3,1207.8,313.6,1207.8,281z M1309.7,281c0-23.7-18.2-43.3-42.6-43.3
		c-23.3,0-41.5,19.4-41.5,43.3c0,23.9,18.2,43.3,41.5,43.3C1291.4,324.4,1309.7,305,1309.7,281z"/>
	<path class="st1" d="M1351.4,282c0-34.2,24.9-60.2,59.1-60.2c32.8,0,58.4,22.6,58.4,57.5v7.5h-100.3c2.3,22.6,20.1,37.9,42.9,37.9
		c18.5,0,31.5-9.6,38.5-23.5l15.3,7.5c-10.5,19.8-28.3,31.7-53.8,31.7C1375.1,340.3,1351.4,315.5,1351.4,282z M1369.4,270.6h81.4
		c-3.2-20.5-18.2-33.1-40.4-33.1C1389.9,237.5,1374,251.4,1369.4,270.6z"/>
</g>
<polygon class="st2" points="70.2,120 116.8,129.7 116.8,373.2 70.2,383 "/>
<polygon class="st3" points="187.8,116.1 187.8,386.8 135.2,397.6 135.2,105.4 "/>
<path class="st4" d="M206.1,89.2v324.6l241.7-48.5V137.7L206.1,89.2z M292.8,340.9c-1.8,0.4-3.6,0.5-5.3,0.5c-6.1,0-12.1-2-16.9-6
	c-6.2-5.2-9.9-12.7-9.9-20.8V188.8l-12.3,12.3l-11-10.9l31.2-31.1l31.1,31.1l-11,10.9l-12.3-12.3v125.8c0,3.4,1.4,6.6,4.1,8.8
	c2.7,2.2,6.1,3,9.4,2.3l64.7-13l13.2,13.2L292.8,340.9z M385.5,320.7l-31.1-31.3l10.9-10.9l12.5,12.5v-86.8c0-5.3-3.8-9.9-9-11.1
	l-56.2-11.3L292.8,162l79,16c12.5,2.4,21.5,13.5,21.5,26.2V291l12.3-12.5l11.1,10.9L385.5,320.7z"/>
<path class="st1" d="M367.6,325.9l-74.8,15c-1.8,0.4-3.6,0.5-5.3,0.5c-6.1,0-12.1-2-16.9-6c-6.2-5.2-9.9-12.7-9.9-20.8V188.8
	l-12.3,12.3l-11-10.9l31.2-31.1l31.1,31.1l-11,10.9l-12.3-12.3v125.8c0,3.4,1.4,6.6,4.1,8.8c2.7,2.2,6.1,3,9.4,2.3l64.7-13
	L367.6,325.9z"/>
<path class="st1" d="M416.7,289.4l-31.1,31.3l-31.1-31.3l10.9-10.9l12.5,12.5v-86.8c0-5.3-3.8-9.9-9-11.1l-56.2-11.3L292.8,162
	l79,16c12.5,2.4,21.5,13.5,21.5,26.2V291l12.3-12.5L416.7,289.4z"/>
</svg>
